 
        Shrek Forever After (2010)1080p BDRip In[Hindi-Eng]AC3-DGrea8


Summary:-

A bored and domesticated Shrek pacts with deal-maker Rumpelstiltskin to get
back to feeling like a real ogre again, but when he's duped and sent to a twisted
version of Far Far Away -- where Rumpelstiltskin is king, ogres are hunted,
and he and Fiona have never met -- he sets out to restore his world and
reclaim his true love.

Cast:-

Mike Myers	 ...	Shrek (voice)
Eddie Murphy	 ...	Donkey (voice)
Cameron Diaz	 ...	Princess Fiona (voice)
Antonio Banderas ...	Puss in Boots (voice)
Julie Andrews	 ...	Queen (voice)
Jon Hamm	 ...	Brogan (voice)
John Cleese	 ...	King Harold (voice)
Craig Robinson	 ...	Cookie (voice)
Walt Dohrn	 ...	Rumpelstiltskin / Priest / Krekraw Ogre (voice)
Jane Lynch	 ...	Gretched (voice)
Lake Bell	 ...	Patrol Witch / Wagon Witch #2 (voice)
Kathy Griffin	 ...	Dancing Witch / Wagon Witch #1 (voice)
Mary Kay Place	 ...	Guard Witch (voice)
Kristen Schaal	 ...	Pumpkin Witch / Palace Witch (voice)
Meredith Vieira	 ...	Broomsy Witch (voice)


Video & Audio Info.:-

Video:

Duration : 1h 33mn
Bit rate : 2 246 Kbps
Width : 1 920 pixels
Height : 800 pixels
Frame rate : 24.000 fps
Stream size : 1.46 GiB (66%)

Audio :1

Format : AC-3
Codec ID : A_AC3
Duration : 1h 33mn
Bit rate mode : Constant
Bit rate : 640 Kbps
Channel(s) : 6 channels
Channel positions : Front: L C R, Side: L R, LFE
Sampling rate : 48.0 KHz
Bit depth : 16 bits
Compression mode : Lossy
Stream size : 427 MiB (19%)
Language : English

Audio :2

Format : AC-3
Bit rate : 448 Kbps
Channel(s) : 6 channels
Channel positions : Front: L C R, Side: L R, LFE
Sampling rate : 48.0 KHz
Bit depth : 16 bits
Compression mode : Lossy
Stream size : 299 MiB (13%)
Language : Hindi
Subtitle Language : English


Screen Shoots:-








Note:--

Hindi Audio Org. DVD Check The Sample Video In This Torrent